# xmcd
#
# Track frame offsets: 
#        150
#        14644
#        27076
#        40900
#        55187
#        66546
#        82610
#        96923
#        110269
#        123847
#        137379
#        151398
#
# Disc length: 2284 seconds
#
# Revision: 0
# Processed by: cddbd v1.5.2PL0 Copyright (c) Steve Scherf et al.
# Submitted via: ExactAudioCopyFreeDBPlugin 1.0
#
DISCID=9108ea0c
DTITLE=Cow Cow Boogie - Rendezvous
DYEAR=2013
DGENRE=Country - Western Swing
TTITLE0=Belleville Rendezvous
TTITLE1=Cow Cow Boogie
TTITLE2=Scorched
TTITLE3=Don't Mess With My Man
TTITLE4=Lost My Guy From Memphis
TTITLE5=Sure Nuff
TTITLE6=Bumble Bee
TTITLE7=That's Why I Cry
TTITLE8=Ain't Got The Time
TTITLE9=Good To Me
TTITLE10=Startin' Over
TTITLE11=Train Train
EXTD=
EXTT0=
EXTT1=
EXTT2=
EXTT3=
EXTT4=
EXTT5=
EXTT6=
EXTT7=
EXTT8=
EXTT9=
EXTT10=
EXTT11=
PLAYORDER=
